<?xml version="1.0" encoding="UTF-8"?>
<svg width="32px" height="32px" viewBox="0 0 32 32" version="1.1" xmlns="http://www.w3.org/2000/svg" xmlns:xlink="http://www.w3.org/1999/xlink">
    <title>Group 6</title>
    <g id="Page-1" stroke="none" stroke-width="1" fill="none" fill-rule="evenodd">
        <g id="Group-6" transform="translate(1.000050, 1.000013)">
            <g id="location-svgrepo-com" fill="#FFFFFF" fill-rule="nonzero">
                <path d="M29.713515,0.286552287 C29.4401237,0.0131609835 29.0314063,-0.0735129295 28.6706889,0.0652044618 L0.627080271,10.8505958 C0.260297662,10.991661 0.0134498359,11.3385523 0.000536792397,11.7313567 C-0.0124414684,12.124161 0.210862879,12.4865741 0.567536793,12.6515741 L12.0412324,17.9589001 L17.3485585,29.4325958 C17.5089933,29.7794219 17.8560802,30.0001828 18.2362976,30.0001828 C18.2470585,30.0001828 18.2579498,30.0001828 18.2687759,29.999661 C18.6615802,29.9866828 19.0084715,29.7399001 19.1495368,29.3731175 L29.9348628,1.32944359 C30.0736455,0.968595766 29.9869063,0.559878374 29.713515,0.286552287 Z M18.1534715,26.5123567 L13.6660585,16.8112045 C13.6173411,16.7058784 13.5506889,16.6109871 13.4698846,16.5301828 L27.3186672,2.68146533 L18.1534715,26.5123567 Z" id="Shape"></path>
            </g>
            <line x1="-5.32908762e-14" y1="0" x2="30.0000963" y2="30.0001828" id="Path-2" stroke="#FFFFFF" stroke-width="2" stroke-linecap="round"></line>
        </g>
    </g>
</svg>