<?xml version="1.0" encoding="UTF-8"?>
<svg width="31px" height="30px" viewBox="0 0 31 30" version="1.1" xmlns="http://www.w3.org/2000/svg" xmlns:xlink="http://www.w3.org/1999/xlink">
    <title>route-svgrepo-com 2</title>
    <g id="Page-1" stroke="none" stroke-width="1" fill="none" fill-rule="evenodd">
        <g id="route-svgrepo-com-2" transform="translate(0.135593, -0.000068)" fill="#FFFFFF" fill-rule="nonzero">
            <g id="route-svgrepo-com">
                <path d="M23.0533986,30 C22.7673648,30 22.5361582,29.7727129 22.5361582,29.4915277 C22.5361582,29.2103424 22.7673648,28.9830551 23.0533986,28.9830551 L24.0516723,28.9830551 C24.3377061,28.9830551 24.587016,29.2103424 24.587016,29.4910192 C24.587016,29.7722044 24.373913,29.9994915 24.0878792,29.9994915 L24.0878792,29.4910192 L24.0728792,29.9994915 L23.0533986,30 Z M20.9844375,30 L19.9499569,30 C19.6639231,30 19.4327167,29.7727129 19.4327167,29.4915277 C19.4327167,29.2103424 19.6639231,28.9830551 19.9499569,28.9830551 L20.9844375,28.9830551 C21.2704714,28.9830551 21.5016779,29.2103424 21.5016779,29.4915277 C21.5016779,29.7727129 21.2704714,30 20.9844375,30 Z M17.8809959,30 L16.8465154,30 C16.5604815,30 16.3292751,29.7727129 16.3292751,29.4915277 C16.3292751,29.2103424 16.5604815,28.9830551 16.8465154,28.9830551 L17.8809959,28.9830551 C18.1670298,28.9830551 18.3982362,29.2103424 18.3982362,29.4915277 C18.3982362,29.7727129 18.1670298,30 17.8809959,30 Z M14.7775544,30 L13.7430738,30 C13.45704,30 13.2258336,29.7727129 13.2258336,29.4915277 C13.2258336,29.2103424 13.45704,28.9830551 13.7430738,28.9830551 L14.7775544,28.9830551 C15.0635882,28.9830551 15.2947946,29.2103424 15.2947946,29.4915277 C15.2947946,29.7727129 15.0635882,30 14.7775544,30 Z M11.6741128,30 L10.6396322,30 C10.3535984,30 10.122392,29.7727129 10.122392,29.4915277 C10.122392,29.2103424 10.3535984,28.9830551 10.6396322,28.9830551 L11.6741128,28.9830551 C11.9601466,28.9830551 12.191353,29.2103424 12.191353,29.4915277 C12.191353,29.7727129 11.9601466,30 11.6741128,30 Z M8.57067118,30 L7.53619065,30 C7.25015679,30 7.01895039,29.7727129 7.01895039,29.4915277 C7.01895039,29.2103424 7.25015679,28.9830551 7.53619065,28.9830551 L8.57067118,28.9830551 C8.85670504,28.9830551 9.08791144,29.2103424 9.08791144,29.4915277 C9.08791144,29.7727129 8.85670504,30 8.57067118,30 Z M25.8811512,29.1264444 C25.7694273,29.1264444 25.6566688,29.0908512 25.5620138,29.0176313 C25.3370143,28.8437336 25.2987385,28.5239046 25.4751175,28.3037359 C25.6432206,28.0937368 25.7585652,27.8552633 25.8180478,27.5959424 C25.8806339,27.3218757 26.1573574,27.1500121 26.4361499,27.2115373 C26.7149424,27.2730624 26.8897696,27.5450952 26.8271836,27.8191619 C26.7351149,28.2218719 26.5489082,28.6067857 26.2882192,28.9316995 C26.186323,29.0598345 26.0347714,29.1264444 25.8811512,29.1264444 Z M25.8816683,26.2978122 C25.7280481,26.2978122 25.5764965,26.2312024 25.4746002,26.1035758 C25.3090833,25.8966275 25.094946,25.7252724 24.8554636,25.6083237 C24.5999469,25.4832394 24.4954645,25.1781561 24.6227055,24.9264622 C24.7499466,24.6752768 25.0592563,24.5720568 25.3163248,24.6976496 C25.6923584,24.8812081 26.0280473,25.15019 26.2882192,25.4745955 C26.4645982,25.6952725 26.4263224,26.0151017 26.2013229,26.1884907 C26.1066678,26.2617108 25.9933922,26.2978122 25.8816683,26.2978122 Z M23.0539159,25.4237481 L22.0194353,25.4237481 C21.7334015,25.4237481 21.5021949,25.196461 21.5021949,24.9152758 C21.5021949,24.6340905 21.7334015,24.4068034 22.0194353,24.4068034 L23.0539159,24.4068034 C23.3399498,24.4068034 23.5711561,24.6340905 23.5711561,24.9152758 C23.5711561,25.196461 23.3399498,25.4237481 23.0539159,25.4237481 Z M19.9504742,25.4237481 L18.9159936,25.4237481 C18.6299598,25.4237481 18.3987534,25.196461 18.3987534,24.9152758 C18.3987534,24.6340905 18.6299598,24.4068034 18.9159936,24.4068034 L19.9504742,24.4068034 C20.2365081,24.4068034 20.4677146,24.6340905 20.4677146,24.9152758 C20.4677146,25.196461 20.2365081,25.4237481 19.9504742,25.4237481 Z M16.8770326,25.2173083 C16.8051362,25.2173083 16.7322053,25.2025626 16.6623779,25.1710375 C16.281689,25.0001906 15.937207,24.7418867 15.6656559,24.4251084 C15.4820356,24.2100245 15.5099666,23.8891785 15.7287592,23.7086708 C15.9475518,23.528163 16.2734132,23.5556206 16.4575507,23.7707043 C16.630309,23.9725679 16.8501361,24.1373129 17.0927218,24.2466345 C17.3523764,24.3630747 17.4666865,24.6645989 17.3477212,24.9203606 C17.2608249,25.1069699 17.0735839,25.2173083 16.8770326,25.2173083 Z M15.5585872,22.7034208 C15.526001,22.7034208 15.4934149,22.70037 15.4608287,22.6942682 C15.1799673,22.6413871 14.9968642,22.374439 15.05014,22.098847 C15.1303122,21.6874929 15.299967,21.307664 15.5534147,20.9690213 C15.7230696,20.7427512 16.0463447,20.6949546 16.2765167,20.8607167 C16.5066886,21.0274957 16.5558264,21.3457994 16.3866888,21.5715612 C16.2247926,21.7871534 16.1172066,22.0286779 16.0665171,22.2900327 C16.0184137,22.5340994 15.8016901,22.7034208 15.5585872,22.7034208 Z M17.7330652,20.8500388 C17.4573762,20.8500388 17.2277215,20.6359719 17.2168594,20.3624137 C17.2054802,20.081737 17.426859,19.8447888 17.7123756,19.8336024 C17.756341,19.8315686 17.8003065,19.8305516 17.8447891,19.8305516 L18.768063,19.8305516 C19.0540968,19.8305516 19.2853033,20.0578387 19.2853033,20.3390239 C19.2853033,20.6202092 19.0540968,20.8474965 18.768063,20.8474965 L17.7547893,20.8495303 C17.7475479,20.8500388 17.7403066,20.8500388 17.7330652,20.8500388 Z M27.155114,20.8474965 L27.0439073,20.8474965 C26.7578734,20.8474965 26.5266669,20.6202092 26.5266669,20.3390239 C26.5266669,20.0578387 26.7578734,19.8305516 27.0439073,19.8305516 L27.155114,19.8305516 C27.3976996,19.8305516 27.6325266,19.7842805 27.8544227,19.6927556 C28.1156291,19.583434 28.4208009,19.7054673 28.5314903,19.9647883 C28.6421797,20.2236007 28.5185592,20.5215657 28.2547666,20.6303788 C27.9056295,20.7742763 27.5358028,20.8474965 27.155114,20.8474965 Z M24.9749462,20.8474965 L23.9404656,20.8474965 C23.6544317,20.8474965 23.4232254,20.6202092 23.4232254,20.3390239 C23.4232254,20.0578387 23.6544317,19.8305516 23.9404656,19.8305516 L24.9749462,19.8305516 C25.26098,19.8305516 25.4921863,20.0578387 25.4921863,20.3390239 C25.4921863,20.6202092 25.26098,20.8474965 24.9749462,20.8474965 Z M21.8715046,20.8474965 L20.8370241,20.8474965 C20.5509902,20.8474965 20.3197837,20.6202092 20.3197837,20.3390239 C20.3197837,20.0578387 20.5509902,19.8305516 20.8370241,19.8305516 L21.8715046,19.8305516 C22.1575385,19.8305516 22.3887448,20.0578387 22.3887448,20.3390239 C22.3887448,20.6202092 22.1575385,20.8474965 21.8715046,20.8474965 Z M29.3885573,19.2051306 C29.3404541,19.2051306 29.2913163,19.1985203 29.2432128,19.1847916 C28.9690755,19.1059783 28.8118344,18.8232676 28.8920066,18.5537773 C28.9406272,18.3910661 28.9654548,18.2222533 28.9654548,18.0514066 C28.9664893,17.9537798 28.9582135,17.8612379 28.9437308,17.7707298 C28.8982136,17.4936123 29.0901097,17.2322575 29.3725228,17.1880204 C29.6533844,17.1422579 29.9197631,17.3319181 29.9652803,17.609544 C29.9895906,17.7585264 30.0009699,17.9085258 29.9999354,18.0549659 C29.9999354,18.3188631 29.9616596,18.5837772 29.885108,18.8395388 C29.8189012,19.0612328 29.6125223,19.2051306 29.3885573,19.2051306 Z M28.3189044,16.578362 C28.2309737,16.578362 28.1414911,16.5564976 28.059767,16.5097182 C27.8254573,16.3759899 27.5699406,16.2976852 27.299424,16.2768378 C27.0144244,16.2549735 26.8018388,16.0103983 26.82408,15.73023 C26.8463215,15.4495532 27.0961485,15.2426049 27.3801135,15.2629438 C27.8058021,15.295486 28.2097668,15.4195533 28.578559,15.6300609 C28.8258,15.7709077 28.91011,16.0826013 28.7663173,16.3251427 C28.6711451,16.4873454 28.4973524,16.578362 28.3189044,16.578362 Z M25.2708077,16.2712446 L24.2363271,16.2712446 C23.9502933,16.2712446 23.7190867,16.0439574 23.7190867,15.7627722 C23.7190867,15.4815869 23.9502933,15.2542998 24.2363271,15.2542998 L25.2708077,15.2542998 C25.5568416,15.2542998 25.7880479,15.4815869 25.7880479,15.7627722 C25.7880479,16.0439574 25.5568416,16.2712446 25.2708077,16.2712446 Z M22.167366,16.2712446 L21.1328854,16.2712446 C20.8468516,16.2712446 20.6156452,16.0439574 20.6156452,15.7627722 C20.6156452,15.4815869 20.8468516,15.2542998 21.1328854,15.2542998 L22.167366,15.2542998 C22.4533999,15.2542998 22.6846062,15.4815869 22.6846062,15.7627722 C22.6846062,16.0439574 22.4533999,16.2712446 22.167366,16.2712446 Z M19.0639245,16.2712446 L18.0294439,16.2712446 C17.74341,16.2712446 17.5122036,16.0439574 17.5122036,15.7627722 C17.5122036,15.4815869 17.74341,15.2542998 18.0294439,15.2542998 L19.0639245,15.2542998 C19.3499584,15.2542998 19.5811647,15.4815869 19.5811647,15.7627722 C19.5811647,16.0439574 19.3499584,16.2712446 19.0639245,16.2712446 Z M15.9604828,16.2712446 L15.7758281,16.2712446 C15.4251392,16.2707361 15.0842778,16.2087025 14.7604854,16.0876861 C14.4935894,15.987517 14.3601415,15.69362 14.4615206,15.4312482 C14.5639341,15.1683679 14.8644507,15.038199 15.1292777,15.1373511 C15.3351394,15.2146389 15.5528975,15.2537913 15.7768625,15.2542998 L15.9604828,15.2542998 C16.2465167,15.2542998 16.4777231,15.4815869 16.4777231,15.7627722 C16.4777231,16.0439574 16.2465167,16.2712446 15.9604828,16.2712446 Z M13.5641087,14.6975225 C13.3468678,14.6975225 13.1441096,14.5617603 13.0727304,14.3476934 C12.9785927,14.0670167 12.9315238,13.7731196 12.9315238,13.4741378 C12.9320411,13.3531214 12.9397997,13.2356643 12.9542824,13.121258 C12.9894548,12.843632 13.239799,12.6478701 13.5320398,12.6804124 C13.8154875,12.7149885 14.0166939,12.9697332 13.9804871,13.2483761 C13.9706595,13.3231215 13.9665216,13.3999008 13.9660044,13.4766802 C13.9660044,13.664815 13.9965216,13.8514244 14.0560042,14.0298982 C14.1449695,14.2963377 13.997556,14.5841331 13.7260049,14.6720989 C13.6722119,14.6898954 13.6173844,14.6975225 13.5641087,14.6975225 Z M14.5489342,12.0387202 C14.3761759,12.0387202 14.2075556,11.9538053 14.1092799,11.7992297 C13.9582458,11.5607561 14.0322111,11.2470286 14.2742796,11.0985547 C14.6363478,10.8763522 15.0356572,10.7410985 15.4608287,10.6948276 C15.7468626,10.6658446 16.0003103,10.8656743 16.031862,11.1448257 C16.0634136,11.423977 15.8580693,11.6751624 15.5741044,11.7061792 C15.3046222,11.7356706 15.0511745,11.8216025 14.822037,11.9619408 C14.7366924,12.013805 14.6425546,12.0387202 14.5489342,12.0387202 Z M21.7240911,11.6949928 L20.6896105,11.6949928 C20.4035766,11.6949928 20.1723703,11.4677057 20.1723703,11.1865204 C20.1723703,10.9053351 20.4035766,10.678048 20.6896105,10.678048 L21.7240911,10.678048 C22.0101249,10.678048 22.2413314,10.9053351 22.2413314,11.1865204 C22.2413314,11.4677057 22.0101249,11.6949928 21.7240911,11.6949928 Z M18.6206495,11.6949928 L17.586169,11.6949928 C17.3001351,11.6949928 17.0689287,11.4677057 17.0689287,11.1865204 C17.0689287,10.9053351 17.3001351,10.678048 17.586169,10.678048 L18.6206495,10.678048 C18.9066834,10.678048 19.1378897,10.9053351 19.1378897,11.1865204 C19.1378897,11.4677057 18.9066834,11.6949928 18.6206495,11.6949928 Z" id="Shape"></path>
                <path d="M27.3982168,1.35724001 L27.3982168,1.35724001 C25.7652893,-0.452413337 23.1175364,-0.452413337 21.4846089,1.35724001 L21.4846089,1.35724001 C19.8516813,3.16689336 19.8516813,6.10027076 21.4846089,7.90992411 L24.4411542,11.1865204 L27.3976996,7.90992411 C29.0311444,6.10077924 29.0311444,3.16689336 27.3982168,1.35724001 Z M24.5689127,6.6102686 C23.2835704,6.6102686 22.2413314,5.58569667 22.2413314,4.32214271 C22.2413314,3.05858873 23.2835704,2.0340168 24.5689127,2.0340168 C25.8542547,2.0340168 26.8964937,3.05858873 26.8964937,4.32214271 C26.8964937,5.58569667 25.8542547,6.6102686 24.5689127,6.6102686 Z" id="Shape"></path>
                <path d="M9.71273768,14.5627773 C7.4906735,12.0951606 3.88809506,12.0951606 1.66654813,14.5627773 L1.66654813,14.5627773 C-0.555516043,17.0303939 -0.555516043,21.031055 1.66654813,23.4981632 L5.68964291,27.9661102 L9.71273768,23.4981632 C11.9348019,21.0305465 11.9348019,17.0298855 9.71273768,14.5627773 Z M5.68964291,20.8474965 C4.26154255,20.8474965 3.10344158,19.7090266 3.10344158,18.3051343 C3.10344158,16.9012419 4.26154255,15.7627722 5.68964291,15.7627722 C7.11774328,15.7627722 8.27584423,16.9012419 8.27584423,18.3051343 C8.27584423,19.7090266 7.11774328,20.8474965 5.68964291,20.8474965 Z" id="Shape"></path>
            </g>
        </g>
    </g>
</svg>