<?xml version="1.0" encoding="UTF-8"?>
<svg width="23px" height="33px" viewBox="0 0 23 33" version="1.1" xmlns="http://www.w3.org/2000/svg" xmlns:xlink="http://www.w3.org/1999/xlink">
    <title>Group 94</title>
    <defs>
        <path d="M21.986137,16.4569271 L20.704486,7.22559766 C20.6772679,7.0286669 20.6108238,6.8497481 20.5163611,6.69524552 C20.3678625,6.17249842 19.9643946,5.79905046 19.492081,5.80498308 L11.5031765,5.90071797 C10.98123,5.90712222 10.5517448,6.37463264 10.4636863,6.9878398 L10.4404709,7.03787302 L6.90132098,15.6892173 C6.70959367,16.1563275 6.78444337,16.6650653 7.0530217,17.000488 L0.0223534712,31.5413429 C-0.0284802815,31.6434106 0.0103454981,31.7694944 0.108810877,31.8219292 L0.200872004,31.8459451 C0.273320108,31.8459451 0.343366618,31.8043175 0.378990271,31.7334704 L7.53294036,17.3311075 C8.06209171,17.4948162 8.65808744,17.1750039 8.90385062,16.5738047 L12.1516071,8.63613423 L12.1516071,17.1077592 C12.1516071,17.158593 12.1604129,17.2090265 12.1736217,17.2582592 L12.1736217,30.6511518 C12.1736217,31.3416102 12.8272557,31.9019823 13.6329907,31.9019823 C14.4391259,31.9019823 15.0927599,31.3416102 15.0927599,30.6511518 L15.0927599,18.4290365 C15.1856216,18.4322387 15.278083,18.4346403 15.3733462,18.4346403 C15.4586029,18.4346403 15.5426587,18.4322387 15.6263142,18.4294368 L15.6263142,30.7167954 C15.6263142,31.4076541 16.2799482,31.9680262 17.0860835,31.9680262 C17.8914182,31.9680262 18.5458527,31.4076541 18.5458527,30.7167954 L18.5458527,17.3307073 C18.5750721,17.2574586 18.5942849,17.1830092 18.5942849,17.1077592 L18.5942849,8.46842287 L18.6779404,8.46682181 L19.8319066,16.7795413 C19.9267696,17.462795 20.4859409,17.9451152 21.0811361,17.8566565 C21.6755308,17.7665967 22.0814003,17.140581 21.986137,16.4569271 Z M12.7604113,2.71500271 C12.7604113,1.21560714 13.9299879,0 15.3733462,0 C16.8159041,0 17.9854807,1.21560714 17.9854807,2.71500271 C17.9854807,4.21479855 16.8159041,5.42960516 15.3733462,5.42960516 C13.9299879,5.42960516 12.7604113,4.21479855 12.7604113,2.71500271 L12.7604113,2.71500271 Z" id="path-1"></path>
    </defs>
    <g id="Page-1" stroke="none" stroke-width="1" fill="none" fill-rule="evenodd">
        <g id="Group-94" transform="translate(0.066153, 0.982000)">
            <mask id="mask-2" fill="white">
                <use xlink:href="#path-1"></use>
            </mask>
            <g id="Clip-93"></g>
            <path d="M21.986137,16.4569271 L20.704486,7.22559766 C20.6772679,7.0286669 20.6108238,6.8497481 20.5163611,6.69524552 C20.3678625,6.17249842 19.9643946,5.79905046 19.492081,5.80498308 L11.5031765,5.90071797 C10.98123,5.90712222 10.5517448,6.37463264 10.4636863,6.9878398 L10.4404709,7.03787302 L6.90132098,15.6892173 C6.70959367,16.1563275 6.78444337,16.6650653 7.0530217,17.000488 L0.0223534712,31.5413429 C-0.0284802815,31.6434106 0.0103454981,31.7694944 0.108810877,31.8219292 L0.200872004,31.8459451 C0.273320108,31.8459451 0.343366618,31.8043175 0.378990271,31.7334704 L7.53294036,17.3311075 C8.06209171,17.4948162 8.65808744,17.1750039 8.90385062,16.5738047 L12.1516071,8.63613423 L12.1516071,17.1077592 C12.1516071,17.158593 12.1604129,17.2090265 12.1736217,17.2582592 L12.1736217,30.6511518 C12.1736217,31.3416102 12.8272557,31.9019823 13.6329907,31.9019823 C14.4391259,31.9019823 15.0927599,31.3416102 15.0927599,30.6511518 L15.0927599,18.4290365 C15.1856216,18.4322387 15.278083,18.4346403 15.3733462,18.4346403 C15.4586029,18.4346403 15.5426587,18.4322387 15.6263142,18.4294368 L15.6263142,30.7167954 C15.6263142,31.4076541 16.2799482,31.9680262 17.0860835,31.9680262 C17.8914182,31.9680262 18.5458527,31.4076541 18.5458527,30.7167954 L18.5458527,17.3307073 C18.5750721,17.2574586 18.5942849,17.1830092 18.5942849,17.1077592 L18.5942849,8.46842287 L18.6779404,8.46682181 L19.8319066,16.7795413 C19.9267696,17.462795 20.4859409,17.9451152 21.0811361,17.8566565 C21.6755308,17.7665967 22.0814003,17.140581 21.986137,16.4569271 Z M12.7604113,2.71500271 C12.7604113,1.21560714 13.9299879,0 15.3733462,0 C16.8159041,0 17.9854807,1.21560714 17.9854807,2.71500271 C17.9854807,4.21479855 16.8159041,5.42960516 15.3733462,5.42960516 C13.9299879,5.42960516 12.7604113,4.21479855 12.7604113,2.71500271 L12.7604113,2.71500271 Z" id="Fill-92" fill="#000000" mask="url(#mask-2)"></path>
        </g>
    </g>
</svg>