<?xml version="1.0" encoding="UTF-8"?>
<svg width="25px" height="33px" viewBox="0 0 25 33" version="1.1" xmlns="http://www.w3.org/2000/svg" xmlns:xlink="http://www.w3.org/1999/xlink">
    <title>Group</title>
    <defs>
        <path d="M0,2.90399493 C0,1.30143523 1.28369776,1.17239347e-14 2.86728249,1.17239347e-14 C4.45127972,1.17239347e-14 5.73456498,1.30143523 5.73456498,2.90399493 C5.73456498,4.50737963 4.45127972,5.80840235 2.86728249,5.80840235 C1.28369776,5.80840235 0,4.50737963 0,2.90399493" id="path-1"></path>
        <path d="M18.7017409,20.5358986 L14.2908861,11.420077 C14.2587112,11.3289147 14.1337239,11.1053401 14.1316614,11.1074026 C13.8891118,10.7629657 13.491875,10.5373286 13.0389508,10.5373286 L13.0327633,10.5377411 L13.0327633,10.5352661 L6.93396146,11.1206025 L6.48516225,8.43234474 L11.5947908,7.93363311 C12.4915643,7.82267081 12.7832012,7.40975903 12.8038262,6.74646019 C12.8256887,6.06913637 12.3009896,5.50318736 11.6327408,5.4804999 L6.07307547,5.96394906 L5.46628903,2.32281792 C5.21301447,0.805645567 3.79112945,-0.217765145 2.29416957,0.039634405 C0.794734688,0.296621456 -0.214651049,1.73500644 0.0390360078,3.25259129 L1.56487084,12.3977003 C2.05533249,14.0402724 3.15464307,14.5616715 5.58096383,14.3867718 L11.9969776,13.7713229 L15.9346957,21.9095212 C16.2019953,22.4622702 16.7497943,22.7840197 17.3198683,22.7840197 C17.5471554,22.7840197 17.7777425,22.7328698 17.9963671,22.6243825 C18.7603158,22.2461206 19.0754653,21.3105722 18.7017409,20.5358986" id="path-3"></path>
        <path d="M11.0797306,18.6169175 C6.30587648,18.6169175 2.42219577,14.6829118 2.42219577,9.84965779 C2.42219577,6.83965055 3.92575564,4.1815052 6.21182665,2.60287045 L5.77870241,0 C2.33928341,1.90698417 0,5.60504021 0,9.84965779 C0,16.036322 4.97061632,21.0700507 11.0797306,21.0700507 C15.2092609,21.0700507 18.8173921,18.7687172 20.7223138,15.3647732 L19.3342537,12.4809907 C18.2279307,16.032197 14.9477364,18.6169175 11.0797306,18.6169175" id="path-5"></path>
    </defs>
    <g id="Page-1" stroke="none" stroke-width="1" fill="none" fill-rule="evenodd">
        <g id="Group" transform="translate(0.000000, -0.000000)">
            <g id="Group-121" transform="translate(5.580290, 0.000000)">
                <mask id="mask-2" fill="white">
                    <use xlink:href="#path-1"></use>
                </mask>
                <g id="Clip-120"></g>
                <path d="M0,2.90399493 C0,1.30143523 1.28369776,1.17239347e-14 2.86728249,1.17239347e-14 C4.45127972,1.17239347e-14 5.73456498,1.30143523 5.73456498,2.90399493 C5.73456498,4.50737963 4.45127972,5.80840235 2.86728249,5.80840235 C1.28369776,5.80840235 0,4.50737963 0,2.90399493" id="Fill-119" fill="#000000" mask="url(#mask-2)"></path>
            </g>
            <g id="Group-124" transform="translate(6.141028, 6.121042)">
                <mask id="mask-4" fill="white">
                    <use xlink:href="#path-3"></use>
                </mask>
                <g id="Clip-123"></g>
                <path d="M18.7017409,20.5358986 L14.2908861,11.420077 C14.2587112,11.3289147 14.1337239,11.1053401 14.1316614,11.1074026 C13.8891118,10.7629657 13.491875,10.5373286 13.0389508,10.5373286 L13.0327633,10.5377411 L13.0327633,10.5352661 L6.93396146,11.1206025 L6.48516225,8.43234474 L11.5947908,7.93363311 C12.4915643,7.82267081 12.7832012,7.40975903 12.8038262,6.74646019 C12.8256887,6.06913637 12.3009896,5.50318736 11.6327408,5.4804999 L6.07307547,5.96394906 L5.46628903,2.32281792 C5.21301447,0.805645567 3.79112945,-0.217765145 2.29416957,0.039634405 C0.794734688,0.296621456 -0.214651049,1.73500644 0.0390360078,3.25259129 L1.56487084,12.3977003 C2.05533249,14.0402724 3.15464307,14.5616715 5.58096383,14.3867718 L11.9969776,13.7713229 L15.9346957,21.9095212 C16.2019953,22.4622702 16.7497943,22.7840197 17.3198683,22.7840197 C17.5471554,22.7840197 17.7777425,22.7328698 17.9963671,22.6243825 C18.7603158,22.2461206 19.0754653,21.3105722 18.7017409,20.5358986" id="Fill-122" fill="#000000" mask="url(#mask-4)"></path>
            </g>
            <g id="Group-127" transform="translate(0.000000, 11.896067)">
                <mask id="mask-6" fill="white">
                    <use xlink:href="#path-5"></use>
                </mask>
                <g id="Clip-126"></g>
                <path d="M11.0797306,18.6169175 C6.30587648,18.6169175 2.42219577,14.6829118 2.42219577,9.84965779 C2.42219577,6.83965055 3.92575564,4.1815052 6.21182665,2.60287045 L5.77870241,0 C2.33928341,1.90698417 0,5.60504021 0,9.84965779 C0,16.036322 4.97061632,21.0700507 11.0797306,21.0700507 C15.2092609,21.0700507 18.8173921,18.7687172 20.7223138,15.3647732 L19.3342537,12.4809907 C18.2279307,16.032197 14.9477364,18.6169175 11.0797306,18.6169175" id="Fill-125" fill="#000000" mask="url(#mask-6)"></path>
            </g>
        </g>
    </g>
</svg>