<?xml version="1.0" encoding="UTF-8"?>
<svg width="31px" height="32px" viewBox="0 0 31 32" version="1.1" xmlns="http://www.w3.org/2000/svg" xmlns:xlink="http://www.w3.org/1999/xlink">
    <title>Group 52</title>
    <defs>
        <path d="M27.9665275,0 L23.2050093,4.7012214 C23.80218,5.45377242 24.3069728,6.30991033 24.6536797,7.29591837 L30,2.01569264 C29.7522418,1.02079468 28.9649041,0.239254793 27.9665275,0 Z M16.6539116,11.1688312 L0,27.8370439 C0.100108225,28.8891466 0.794294991,29.7688621 1.74126469,30.1410792 L17.6248454,14.2339208 C17.5061843,14.0800866 16.9754947,11.7111163 16.6539116,11.1688312 Z M24.1674397,10.4920377 C24.1461812,10.3022573 24.1195114,10.116342 24.0889765,9.93274583 C24.0824057,9.89332096 24.0742888,9.85544218 24.0673315,9.81601732 C24.0406617,9.66682127 24.0116729,9.51994434 23.9792053,9.37461348 L23.9579468,9.28532777 C23.9212276,9.12724181 23.8806432,8.97186147 23.8369666,8.81918677 L23.8249845,8.7774428 C23.4775046,7.58310142 22.9267161,6.54491342 22.2309833,5.66751701 L22.2309833,5.66713049 C22.1192795,5.52605133 22.0029375,5.38961039 21.8838899,5.25664811 L21.8545145,5.22418058 C21.4900278,4.82142857 21.0938466,4.45694187 20.6721552,4.13110699 L20.6319573,4.10057205 C20.5001546,4.0000773 20.3660328,3.90267471 20.2299784,3.80952381 L20.2044682,3.79174397 C19.9134199,3.59500618 19.6134818,3.41450216 19.3050402,3.2521645 L19.2459029,3.22124304 C19.1141002,3.15282931 18.9815244,3.08750773 18.8470161,3.02566481 L18.7677798,2.98894558 C18.4589518,2.84902597 18.1450989,2.72572665 17.8262214,2.61904762 L17.7465986,2.59392393 C17.6175015,2.55140693 17.4872449,2.51198207 17.3566017,2.47526283 C17.3156308,2.46366729 17.2742733,2.45284477 17.2329159,2.44163575 C17.1061379,2.40762214 16.9785869,2.37631416 16.8506494,2.34771181 L16.7540198,2.32529375 C16.5951608,2.29166667 16.4359153,2.26074521 16.2762832,2.23484848 L16.1993661,2.22325294 C16.0671769,2.20315399 15.9357607,2.18498763 15.8031849,2.16991342 C15.7540971,2.16450216 15.7050093,2.15947743 15.6559215,2.15483921 C15.5418986,2.14324366 15.4274892,2.13396722 15.3130798,2.12662338 C15.2663111,2.12353123 15.2187693,2.12005257 15.1720006,2.11773346 C15.0143012,2.11000309 14.8581478,2.10497835 14.7016079,2.10497835 L14.5984075,2.10536487 C10.2840909,2.1525201 5.67022263,5.09121831 5.0888992,11.5507112 C5.03826531,12.1130952 5.4533859,12.6101577 6.01576994,12.6607916 C6.57660792,12.7121985 7.07521645,12.2963049 7.12585034,11.7339208 C7.62445887,6.19124923 11.4749536,4.18483302 14.6208256,4.1504329 C14.7452845,4.14927335 14.8705164,4.15197897 14.9961348,4.15661719 C15.032081,4.15816327 15.0680272,4.16009586 15.1039734,4.16241497 C15.201376,4.1674397 15.2987786,4.17401051 15.3961812,4.18290043 L15.4939703,4.19140383 C15.6215213,4.20454545 15.7494589,4.22000618 15.8773964,4.2393321 L15.9160482,4.24590291 C16.0316172,4.26368275 16.1475727,4.28494125 16.2635281,4.30813234 L16.3605442,4.32823129 C16.4691558,4.35142239 16.578154,4.37731911 16.6867656,4.40514842 L16.7466759,4.41983612 C16.8780921,4.45500928 17.0091218,4.49327458 17.1393785,4.53501855 L17.1780303,4.54816017 C17.2943723,4.58603896 17.4107143,4.62778293 17.5258967,4.67145949 L17.5958565,4.69812925 C17.8555968,4.79978355 18.1106988,4.91457947 18.3596166,5.04522263 L18.3866729,5.05991033 C18.5041744,5.12175325 18.6193568,5.18707483 18.7337662,5.25510204 L18.7728046,5.27867965 C19.0186302,5.42826221 19.2582715,5.5933055 19.4878633,5.77419604 L19.5083488,5.79081633 C19.6192795,5.87894249 19.7282777,5.97054731 19.8341837,6.0656308 L19.8480983,6.07761286 C20.0684137,6.2774428 20.2782931,6.49311998 20.4754174,6.7246444 L20.4966759,6.75015461 C20.592919,6.86456401 20.6860699,6.98283859 20.7765152,7.10497835 C21.3439239,7.87994743 21.7760513,8.81300247 22.0060297,9.91419295 C22.0605288,10.1739332 22.1042053,10.4417904 22.1351268,10.719697 C22.3670377,12.7879561 22.3469388,14.3243661 21.558055,16.0563544 C21.0010823,17.2796846 20.0471552,18.2614409 19.0371831,19.300402 C18.6201299,19.7298237 18.1887755,20.1735467 17.7775201,20.6443259 C16.2963822,22.3365028 15.5098176,24.0174706 14.6768707,25.7981602 C14.5141466,26.1467996 14.3471707,26.5031694 14.1713049,26.8688157 C13.5787724,28.0971707 12.3322511,29.3467842 10.614564,29.1697588 C10.1418522,29.120671 9.82877242,28.9150433 9.62971552,28.5219542 C9.20802412,27.6890074 9.41287879,26.2975417 9.8685838,25.5202536 C10.1542208,25.0332406 9.99111008,24.407081 9.50371058,24.121444 C9.01708411,23.835034 8.39053803,23.9989177 8.10490105,24.4859307 C7.35544218,25.76376 7.01144094,27.8780148 7.80496289,29.4457328 C8.31903216,30.4587972 9.24165121,31.0834106 10.4050711,31.2036178 C10.5770717,31.2213976 10.7475263,31.2299011 10.9179808,31.2299011 C13.0132962,31.2295145 14.9744898,29.9107143 16.0130643,27.7570346 C16.1931818,27.3832715 16.3628633,27.0203309 16.5294527,26.6647341 C17.3322511,24.94782 18.0264378,23.4655226 19.3166357,21.9909555 C19.692718,21.5603741 20.105133,21.1359771 20.5040198,20.7254947 C21.5909091,19.6069109 22.7149041,18.4500618 23.4191404,16.9036024 C24.3993506,14.7514688 24.4322047,12.8548237 24.1674397,10.4920377 Z M9.81717687,12.2506957 C9.26522882,12.1297155 8.91620284,11.5847248 9.03756957,11.0331633 C9.51994434,8.83658009 11.0818646,7.23716759 13.3221243,6.64502165 C15.5480829,6.05635436 17.9251701,6.64115646 19.2373995,8.0994898 C19.9188312,8.85629252 20.6636518,10.4255566 20.7923624,12.2259586 C20.8321738,12.7891156 20.4085498,13.2784477 19.8453927,13.3186456 L19.7715677,13.3213513 C19.2401051,13.3213513 18.7909709,12.9104824 18.7523191,12.3716759 C18.6529839,10.9836889 18.0647032,9.85312307 17.7176098,9.46699134 C16.917517,8.5783859 15.3242888,8.230906 13.8443105,8.62206246 C12.9788961,8.85088126 11.4621985,9.5253556 11.0350959,11.471475 C10.9137291,12.0230365 10.3687384,12.3720625 9.81717687,12.2506957 L9.81717687,12.2506957 Z" id="path-1"></path>
    </defs>
    <g id="Page-1" stroke="none" stroke-width="1" fill="none" fill-rule="evenodd">
        <g id="Group-52" transform="translate(0.833000, 0.256000)">
            <mask id="mask-2" fill="white">
                <use xlink:href="#path-1"></use>
            </mask>
            <g id="Clip-51"></g>
            <path d="M27.9665275,0 L23.2050093,4.7012214 C23.80218,5.45377242 24.3069728,6.30991033 24.6536797,7.29591837 L30,2.01569264 C29.7522418,1.02079468 28.9649041,0.239254793 27.9665275,0 Z M16.6539116,11.1688312 L0,27.8370439 C0.100108225,28.8891466 0.794294991,29.7688621 1.74126469,30.1410792 L17.6248454,14.2339208 C17.5061843,14.0800866 16.9754947,11.7111163 16.6539116,11.1688312 Z M24.1674397,10.4920377 C24.1461812,10.3022573 24.1195114,10.116342 24.0889765,9.93274583 C24.0824057,9.89332096 24.0742888,9.85544218 24.0673315,9.81601732 C24.0406617,9.66682127 24.0116729,9.51994434 23.9792053,9.37461348 L23.9579468,9.28532777 C23.9212276,9.12724181 23.8806432,8.97186147 23.8369666,8.81918677 L23.8249845,8.7774428 C23.4775046,7.58310142 22.9267161,6.54491342 22.2309833,5.66751701 L22.2309833,5.66713049 C22.1192795,5.52605133 22.0029375,5.38961039 21.8838899,5.25664811 L21.8545145,5.22418058 C21.4900278,4.82142857 21.0938466,4.45694187 20.6721552,4.13110699 L20.6319573,4.10057205 C20.5001546,4.0000773 20.3660328,3.90267471 20.2299784,3.80952381 L20.2044682,3.79174397 C19.9134199,3.59500618 19.6134818,3.41450216 19.3050402,3.2521645 L19.2459029,3.22124304 C19.1141002,3.15282931 18.9815244,3.08750773 18.8470161,3.02566481 L18.7677798,2.98894558 C18.4589518,2.84902597 18.1450989,2.72572665 17.8262214,2.61904762 L17.7465986,2.59392393 C17.6175015,2.55140693 17.4872449,2.51198207 17.3566017,2.47526283 C17.3156308,2.46366729 17.2742733,2.45284477 17.2329159,2.44163575 C17.1061379,2.40762214 16.9785869,2.37631416 16.8506494,2.34771181 L16.7540198,2.32529375 C16.5951608,2.29166667 16.4359153,2.26074521 16.2762832,2.23484848 L16.1993661,2.22325294 C16.0671769,2.20315399 15.9357607,2.18498763 15.8031849,2.16991342 C15.7540971,2.16450216 15.7050093,2.15947743 15.6559215,2.15483921 C15.5418986,2.14324366 15.4274892,2.13396722 15.3130798,2.12662338 C15.2663111,2.12353123 15.2187693,2.12005257 15.1720006,2.11773346 C15.0143012,2.11000309 14.8581478,2.10497835 14.7016079,2.10497835 L14.5984075,2.10536487 C10.2840909,2.1525201 5.67022263,5.09121831 5.0888992,11.5507112 C5.03826531,12.1130952 5.4533859,12.6101577 6.01576994,12.6607916 C6.57660792,12.7121985 7.07521645,12.2963049 7.12585034,11.7339208 C7.62445887,6.19124923 11.4749536,4.18483302 14.6208256,4.1504329 C14.7452845,4.14927335 14.8705164,4.15197897 14.9961348,4.15661719 C15.032081,4.15816327 15.0680272,4.16009586 15.1039734,4.16241497 C15.201376,4.1674397 15.2987786,4.17401051 15.3961812,4.18290043 L15.4939703,4.19140383 C15.6215213,4.20454545 15.7494589,4.22000618 15.8773964,4.2393321 L15.9160482,4.24590291 C16.0316172,4.26368275 16.1475727,4.28494125 16.2635281,4.30813234 L16.3605442,4.32823129 C16.4691558,4.35142239 16.578154,4.37731911 16.6867656,4.40514842 L16.7466759,4.41983612 C16.8780921,4.45500928 17.0091218,4.49327458 17.1393785,4.53501855 L17.1780303,4.54816017 C17.2943723,4.58603896 17.4107143,4.62778293 17.5258967,4.67145949 L17.5958565,4.69812925 C17.8555968,4.79978355 18.1106988,4.91457947 18.3596166,5.04522263 L18.3866729,5.05991033 C18.5041744,5.12175325 18.6193568,5.18707483 18.7337662,5.25510204 L18.7728046,5.27867965 C19.0186302,5.42826221 19.2582715,5.5933055 19.4878633,5.77419604 L19.5083488,5.79081633 C19.6192795,5.87894249 19.7282777,5.97054731 19.8341837,6.0656308 L19.8480983,6.07761286 C20.0684137,6.2774428 20.2782931,6.49311998 20.4754174,6.7246444 L20.4966759,6.75015461 C20.592919,6.86456401 20.6860699,6.98283859 20.7765152,7.10497835 C21.3439239,7.87994743 21.7760513,8.81300247 22.0060297,9.91419295 C22.0605288,10.1739332 22.1042053,10.4417904 22.1351268,10.719697 C22.3670377,12.7879561 22.3469388,14.3243661 21.558055,16.0563544 C21.0010823,17.2796846 20.0471552,18.2614409 19.0371831,19.300402 C18.6201299,19.7298237 18.1887755,20.1735467 17.7775201,20.6443259 C16.2963822,22.3365028 15.5098176,24.0174706 14.6768707,25.7981602 C14.5141466,26.1467996 14.3471707,26.5031694 14.1713049,26.8688157 C13.5787724,28.0971707 12.3322511,29.3467842 10.614564,29.1697588 C10.1418522,29.120671 9.82877242,28.9150433 9.62971552,28.5219542 C9.20802412,27.6890074 9.41287879,26.2975417 9.8685838,25.5202536 C10.1542208,25.0332406 9.99111008,24.407081 9.50371058,24.121444 C9.01708411,23.835034 8.39053803,23.9989177 8.10490105,24.4859307 C7.35544218,25.76376 7.01144094,27.8780148 7.80496289,29.4457328 C8.31903216,30.4587972 9.24165121,31.0834106 10.4050711,31.2036178 C10.5770717,31.2213976 10.7475263,31.2299011 10.9179808,31.2299011 C13.0132962,31.2295145 14.9744898,29.9107143 16.0130643,27.7570346 C16.1931818,27.3832715 16.3628633,27.0203309 16.5294527,26.6647341 C17.3322511,24.94782 18.0264378,23.4655226 19.3166357,21.9909555 C19.692718,21.5603741 20.105133,21.1359771 20.5040198,20.7254947 C21.5909091,19.6069109 22.7149041,18.4500618 23.4191404,16.9036024 C24.3993506,14.7514688 24.4322047,12.8548237 24.1674397,10.4920377 Z M9.81717687,12.2506957 C9.26522882,12.1297155 8.91620284,11.5847248 9.03756957,11.0331633 C9.51994434,8.83658009 11.0818646,7.23716759 13.3221243,6.64502165 C15.5480829,6.05635436 17.9251701,6.64115646 19.2373995,8.0994898 C19.9188312,8.85629252 20.6636518,10.4255566 20.7923624,12.2259586 C20.8321738,12.7891156 20.4085498,13.2784477 19.8453927,13.3186456 L19.7715677,13.3213513 C19.2401051,13.3213513 18.7909709,12.9104824 18.7523191,12.3716759 C18.6529839,10.9836889 18.0647032,9.85312307 17.7176098,9.46699134 C16.917517,8.5783859 15.3242888,8.230906 13.8443105,8.62206246 C12.9788961,8.85088126 11.4621985,9.5253556 11.0350959,11.471475 C10.9137291,12.0230365 10.3687384,12.3720625 9.81717687,12.2506957 L9.81717687,12.2506957 Z" id="Fill-50" fill="#000000" mask="url(#mask-2)"></path>
        </g>
    </g>
</svg>