<?xml version="1.0" encoding="UTF-8"?>
<svg width="21px" height="21px" viewBox="0 0 21 21" version="1.1" xmlns="http://www.w3.org/2000/svg" xmlns:xlink="http://www.w3.org/1999/xlink">
    <title>Group 10</title>
    <g id="Page-1" stroke="none" stroke-width="1" fill="none" fill-rule="evenodd">
        <g id="Group-10" transform="translate(0.116947, 0.007710)" fill="#FFFFFF" fill-rule="nonzero">
            <g id="layer-svgrepo-com" transform="translate(0.000000, 0.000000)">
                <path d="M11.6647541,0.47858314 L19.3061435,5.31537233 C19.8578074,5.66456047 20.0068781,6.37224281 19.6391022,6.89602507 C19.5511837,7.0212374 19.438021,7.12868067 19.3061435,7.2121556 L11.6647541,12.0489448 C10.6566363,12.6870556 9.34328486,12.6870556 8.33516706,12.0489448 L0.693777727,7.2121556 C0.142113691,6.8629674 -0.00695699824,6.1552851 0.360819028,5.63150286 C0.448737452,5.5062905 0.561900092,5.39884723 0.693777727,5.31537233 L8.33516706,0.47858314 C9.34328486,-0.159527713 10.6566363,-0.159527713 11.6647541,0.47858314 Z M19.6347227,10.4719121 C19.4565771,10.7425389 19.2205695,10.9746367 18.9419732,11.1531848 L11.679078,15.8078627 C10.6644256,16.4581379 9.33549553,16.4581379 8.32084319,15.8078627 L1.05794791,11.1531848 C0.144381591,10.5676941 -0.209886461,9.4898752 0.122599233,8.54341373 L8.33516706,13.7405359 C9.28027759,14.3387649 10.4936597,14.3761541 11.4723041,13.8527039 L11.6647541,13.7405359 L19.8765459,8.54283913 C20.0946801,9.1653662 20.0295581,9.87210413 19.6347227,10.4719121 Z M19.6347227,14.1763429 C19.4565771,14.4469698 19.2205695,14.6790676 18.9419732,14.8576157 L11.679078,19.5122936 C10.6644256,20.1625688 9.33549553,20.1625688 8.32084319,19.5122936 L1.05794791,14.8576157 C0.144381591,14.272125 -0.209886461,13.1943061 0.122599233,12.2478446 L8.33516706,17.4449667 C9.28027759,18.0431957 10.4936597,18.0805849 11.4723041,17.5571347 L11.6647541,17.4449667 L19.8765459,12.24727 C20.0946801,12.8697971 20.0295581,13.576535 19.6347227,14.1763429 Z" id="🎨-Color"></path>
            </g>
        </g>
    </g>
</svg>