<?xml version="1.0" encoding="UTF-8"?>
<svg width="15px" height="20px" viewBox="0 0 15 20" version="1.1" xmlns="http://www.w3.org/2000/svg" xmlns:xlink="http://www.w3.org/1999/xlink">
    <title>Group 8</title>
    <g id="Page-1" stroke="none" stroke-width="1" fill="none" fill-rule="evenodd">
        <g id="Group-8" transform="translate(-0.000000, 0.575545)">
            <g id="custom_poi" transform="translate(0.000000, 0.000000)">
                <path d="M5.62497254,6.47482255 C5.62497254,7.42687597 6.46604855,8.2014419 7.49996339,8.2014419 C8.53387823,8.2014419 9.37495424,7.42692181 9.37495424,6.47482255 C9.37495424,5.52281493 8.53387823,4.74820321 7.49996339,4.74820321 C6.46604855,4.74820321 5.62497254,5.52281493 5.62497254,6.47482255 Z" id="Path"></path>
                <path d="M7.94611885,17.7119915 C7.83154941,17.824985 7.66970058,17.8893121 7.49998859,17.8893121 C7.33032704,17.8893121 7.16847817,17.824985 7.05385833,17.7119915 C7.00395785,17.6627332 6.13130467,16.7994387 5.02079267,15.5451737 L0,17.0995409 L7.48416157,19.4244677 L14.9999268,17.0977654 L9.98407378,15.5395741 C8.87119272,16.7967982 7.99612013,17.6626422 7.94611885,17.7119915 Z" id="Path"></path>
                <path d="M1.49999268,6.97720127 C1.49999268,9.4317225 5.48753043,14.2347116 7.49991355,16.4028838 C9.51229668,14.234098 13.4999341,9.4300706 13.4999341,6.97720127 C13.4999341,3.84402294 10.8083175,1.29496451 7.49991355,1.29496451 C4.19150964,1.29496451 1.49999268,3.84402294 1.49999268,6.97720127 Z M7.49991355,3.73452406 C9.19483264,3.73452406 10.573733,5.04039261 10.573733,6.64554239 C10.573733,8.25069212 9.19483264,9.55656066 7.49991355,9.55656066 C5.80499446,9.55656066 4.42609413,8.25069212 4.42609413,6.64554239 C4.42609413,5.04039261 5.80499446,3.73452406 7.49991355,3.73452406 Z" id="Shape" fill-rule="nonzero"></path>
                <path d="M10.599061,14.3023488 C10.7827962,14.0768368 10.9689117,13.8445627 11.155483,13.606236 C13.4575921,10.6652648 14.6249286,8.38465728 14.6249286,6.82782548 C14.6249286,3.06292456 11.3445358,0 7.31243899,0 C3.2803422,0 0,3.06292456 0,6.82787279 C0,8.38470454 1.16733651,10.6652648 3.46944565,13.6062833 C3.65758687,13.8465488 3.84522167,14.0807143 4.03037491,14.3078814 C5.40001047,16.2807326 6.47066418,17.2668366 7.24233597,17.2661938 C7.93037219,17.2656072 9.04928052,16.277659 10.599061,14.3023488 Z M13.4094806,6.82787279 C13.4094806,9.28538115 9.35732895,14.0984943 7.31238833,16.2713818 C5.26744775,14.099109 1.21539735,9.2870362 1.21539735,6.82787279 C1.21539735,3.68876877 3.95050983,1.13488938 7.31243899,1.13488938 C10.6743681,1.13488938 13.4094806,3.68876877 13.4094806,6.82787279 Z" id="Shape" fill="#FFFFFF" fill-rule="nonzero"></path>
                <path d="M7.31246431,9.49640641 C9.07005883,9.49640641 10.4999487,8.1409387 10.4999487,6.47482255 C10.4999487,4.80870641 9.07005883,3.45323869 7.31246431,3.45323869 C5.55486979,3.45323869 4.12497987,4.80870641 4.12497987,6.47482255 C4.12497987,8.1409387 5.55486979,9.49640641 7.31246431,9.49640641 Z M9.25962209,6.47482255 C9.25962209,7.49259909 8.38617373,8.32063566 7.31246431,8.32063566 C6.23875489,8.32063566 5.36530652,7.49264808 5.36530652,6.47482255 C5.36530652,5.45709501 6.23875489,4.62900945 7.31246431,4.62900945 C8.38617373,4.62900945 9.25962209,5.45709501 9.25962209,6.47482255 Z" id="Shape" fill="#FFFFFF" fill-rule="nonzero"></path>
            </g>
        </g>
    </g>
</svg>