<?xml version="1.0" encoding="UTF-8"?>
<svg width="32px" height="36px" viewBox="0 0 32 36" version="1.1" xmlns="http://www.w3.org/2000/svg" xmlns:xlink="http://www.w3.org/1999/xlink">
    <title>Group 8</title>
    <g id="Page-1" stroke="none" stroke-width="1" fill="none" fill-rule="evenodd">
        <g id="Group-4" transform="translate(1.000000, 1.000013)">
            <g id="custom_poi" transform="translate(0.000000, 0.999987)">
                <path d="M11.25,11.25 C11.25,12.9041922 12.9321602,14.25 15,14.25 C17.0678398,14.25 18.75,12.9042718 18.75,11.25 C18.75,9.59588737 17.0678398,8.25 15,8.25 C12.9321602,8.25 11.25,9.59588737 11.25,11.25 Z" id="Path"></path>
                <path d="M15.8923153,30.7745737 C15.6631753,30.9709 15.339476,31.0826683 15.0000504,31.0826683 C14.6607257,31.0826683 14.3370263,30.9709 14.1077855,30.7745737 C14.0079841,30.6889875 12.2626692,29.1890139 10.0416344,27.0097293 L0,29.7104412 L14.9683962,33.75 L30,29.7073563 L19.968245,27 C17.742472,29.1844261 15.9923183,30.6888293 15.8923153,30.7745737 Z" id="Path"></path>
                <path d="M3,12.1228827 C3,16.3876118 10.9751144,24.7328021 14.9999003,28.5 C19.0246862,24.7317361 27,16.3847416 27,12.1228827 C27,6.67898738 21.6167405,2.25 14.9999003,2.25 C8.3830602,2.25 3,6.67898738 3,12.1228827 Z M14.9999003,6.48873314 C18.389755,6.48873314 21.1475692,8.7576789 21.1475692,11.5466256 C21.1475692,14.3355722 18.389755,16.604518 14.9999003,16.604518 C11.6100456,16.604518 8.85223147,14.3355722 8.85223147,11.5466256 C8.85223147,8.7576789 11.6100456,6.48873314 14.9999003,6.48873314 Z" id="Shape" fill-rule="nonzero"></path>
                <path d="M21.1982254,24.8503217 C21.5656977,24.4584948 21.9379305,24.0549188 22.3110748,23.6408263 C26.9153155,18.5308906 29.25,14.5683366 29.25,11.8633423 C29.25,5.32182944 22.6891822,0 14.6249494,0 C6.56071642,0 0,5.32182944 0,11.8634245 C0,14.5684187 2.33468441,18.5308906 6.93892517,23.6409084 C7.31520945,24.0583696 7.69048087,24.465232 8.06078917,24.8599346 C10.8000736,28.2877624 12.9413915,30.0011175 14.4847426,30 C15.8608218,29.9989814 18.0986494,28.2824219 21.1982254,24.8503217 Z M26.8190921,11.8634245 C26.8190921,16.1333438 18.7147493,24.4961247 14.624848,28.2715154 C10.5349469,24.4971928 2.43080657,16.1362194 2.43080657,11.8634245 C2.43080657,6.40923335 7.90105823,1.97186956 14.6249494,1.97186956 C21.3488405,1.97186956 26.8190921,6.40923335 26.8190921,11.8634245 Z" id="Shape" fill="#FFFFFF" fill-rule="nonzero"></path>
                <path d="M14.625,16.5 C18.1402062,16.5 21,14.1448757 21,11.25 C21,8.35512427 18.1402062,6 14.625,6 C11.1097938,6 8.25,8.35512427 8.25,11.25 C8.25,14.1448757 11.1097938,16.5 14.625,16.5 Z M18.5193346,11.25 C18.5193346,13.0183861 16.7724293,14.4570991 14.625,14.4570991 C12.4775707,14.4570991 10.7306654,13.0184712 10.7306654,11.25 C10.7306654,9.48169905 12.4775707,8.04290092 14.625,8.04290092 C16.7724293,8.04290092 18.5193346,9.48169905 18.5193346,11.25 Z" id="Shape" fill="#FFFFFF" fill-rule="nonzero"></path>
            </g>
            <line x1="5.01641247e-05" y1="0" x2="30.0001464" y2="30.0001828" id="Path-2" stroke="#FFFFFF" stroke-width="2" stroke-linecap="round"></line>
        </g>
    </g>
</svg>