<?xml version="1.0" encoding="UTF-8"?>
<svg width="31px" height="31px" viewBox="0 0 31 31" version="1.1" xmlns="http://www.w3.org/2000/svg" xmlns:xlink="http://www.w3.org/1999/xlink">
    <title>Group 10</title>
    <g id="Page-1" stroke="none" stroke-width="1" fill="none" fill-rule="evenodd">
        <g id="Group-10" transform="translate(0.116947, 0.007710)" fill="#FFFFFF" fill-rule="nonzero">
            <g id="layer-svgrepo-com" transform="translate(0.000000, 0.000000)">
                <path d="M17.4971311,0.71787471 L28.9592152,7.97305849 C29.7867111,8.49684071 30.0103172,9.55836421 29.4586533,10.3440376 C29.3267756,10.5318561 29.1570315,10.693021 28.9592152,10.8182334 L17.4971311,18.0734172 C15.9849545,19.0305834 14.0149273,19.0305834 12.5027506,18.0734172 L1.04066659,10.8182334 C0.213170537,10.2944511 -0.0104354974,9.23292765 0.541228542,8.44725429 C0.673106179,8.25943575 0.842850139,8.09827085 1.04066659,7.97305849 L12.5027506,0.71787471 C14.0149273,-0.23929157 15.9849545,-0.23929157 17.4971311,0.71787471 Z M29.452084,15.7078681 C29.1848657,16.1138084 28.8308542,16.4619551 28.4129598,16.7297772 L17.518617,23.7117941 C15.9966384,24.6872069 14.0032433,24.6872069 12.4812648,23.7117941 L1.58692187,16.7297772 C0.216572387,15.8515412 -0.314829691,14.2348128 0.18389885,12.8151206 L12.5027506,20.6108038 C13.9204164,21.5081473 15.7404896,21.5642311 17.2084561,20.7790558 L17.4971311,20.6108038 L29.8148188,12.8142587 C30.1420201,13.7480493 30.0443371,14.8081562 29.452084,15.7078681 Z M29.452084,21.2645144 C29.1848657,21.6704547 28.8308542,22.0186014 28.4129598,22.2864235 L17.518617,29.2684404 C15.9966384,30.2438532 14.0032433,30.2438532 12.4812648,29.2684404 L1.58692187,22.2864235 C0.216572387,21.4081875 -0.314829691,19.7914591 0.18389885,18.3717669 L12.5027506,26.1674501 C13.9204164,27.0647936 15.7404896,27.1208774 17.2084561,26.3357021 L17.4971311,26.1674501 L29.8148188,18.370905 C30.1420201,19.3046956 30.0443371,20.3648025 29.452084,21.2645144 Z" id="🎨-Color"></path>
            </g>
        </g>
    </g>
</svg>