<?xml version="1.0" encoding="UTF-8"?>
<svg width="33px" height="33px" viewBox="0 0 33 33" version="1.1" xmlns="http://www.w3.org/2000/svg" xmlns:xlink="http://www.w3.org/1999/xlink">
    <title>custom_property</title>
    <g id="Page-1" stroke="none" stroke-width="1" fill="none" fill-rule="evenodd" stroke-linecap="round" stroke-linejoin="round">
        <g id="custom_property" transform="translate(1.444445, 1.400000)" stroke="#FFFFFF" stroke-width="1.5">
            <g id="setting-svgrepo-com">
                <path d="M15.0000275,11.0526316 C17.4369146,11.0526316 19.4118006,12.8196316 19.4118006,15 C19.4118006,17.1803684 17.4369146,18.9473684 15.0000275,18.9473684 C12.5631405,18.9473684 10.5882544,17.1803684 10.5882544,15 C10.5882544,12.8196316 12.5631405,11.0526316 15.0000275,11.0526316 Z" id="Stroke-1"></path>
                <path d="M29.4141726,7.50039474 L29.4141726,7.50039474 C28.207994,5.61787895 25.5374594,4.97374737 23.4503377,6.06082105 C21.6349813,7.00441579 19.3660947,5.82375789 19.3660947,3.93502105 C19.3660947,1.76240526 17.4104439,-6.57368896e-16 14.9996746,-6.57368896e-16 L14.9996746,-6.57368896e-16 C12.5889053,-6.57368896e-16 10.6331839,1.76240526 10.6331839,3.93502105 C10.6331839,5.82375789 8.36431484,7.00441579 6.55058197,6.06082105 C4.46169562,4.97374737 1.79130229,5.61787895 0.585052919,7.50039474 C-0.619484677,9.38289474 0.095275513,11.7894474 2.18416185,12.8748947 C3.9978771,13.8200526 3.9978771,16.1799474 2.18416185,17.1251053 C0.095275513,18.2120526 -0.619484677,20.6186842 0.585052919,22.4996842 C1.79130229,24.3821053 4.46169562,25.0263158 6.54885255,23.9407895 L6.55058197,23.9407895 C8.36431484,22.9956316 10.6331839,24.1762105 10.6331839,26.0649474 L10.6331839,26.0649474 C10.6331839,28.2375789 12.5889053,30 14.9996746,30 L14.9996746,30 C17.4104439,30 19.3660947,28.2375789 19.3660947,26.0649474 L19.3660947,26.0649474 C19.3660947,24.1762105 21.6349813,22.9956316 23.4503377,23.9407895 C25.5374594,25.0263158 28.207994,24.3821053 29.4141726,22.4996842 C30.6203515,20.6186842 29.9038795,18.2120526 27.8167579,17.1251053 L27.8149931,17.1251053 C26.0014015,16.1799474 26.0014015,13.8200526 27.8167579,12.8748947 C29.9038795,11.7894474 30.6203515,9.38289474 29.4141726,7.50039474 Z" id="Stroke-3"></path>
            </g>
        </g>
    </g>
</svg>