<?xml version="1.0" encoding="UTF-8"?>
<svg width="27px" height="27px" viewBox="0 0 27 27" version="1.1" xmlns="http://www.w3.org/2000/svg" xmlns:xlink="http://www.w3.org/1999/xlink">
    <title>Group</title>
    <g id="Page-1" stroke="none" stroke-width="1" fill="none" fill-rule="evenodd">
        <g id="Group" transform="translate(1.000000, 1.000000)">
            <g id="location_nf_x" fill="#FFFFFF" fill-rule="nonzero">
                <path d="M24.7612625,0.238793573 C24.5334365,0.0109674863 24.1928386,-0.0612607746 23.8922408,0.0543370515 L0.522566893,9.04216314 C0.216914719,9.15971749 0.0112081966,9.44879358 0.000447327002,9.77613053 C-0.0103678904,10.1034675 0.175719067,10.4054783 0.472947327,10.5429783 L10.0343604,14.9657501 L14.4571321,24.5271631 C14.5908278,24.8161849 14.8800669,25.0001522 15.1969147,25.0001522 C15.2058821,25.0001522 15.2149582,25.0001522 15.2239799,24.9997175 C15.5513169,24.9889022 15.840393,24.7832501 15.9579473,24.4775979 L24.9457191,1.10786966 C25.0613712,0.807163138 24.9890886,0.466565312 24.7612625,0.238793573 Z M15.127893,22.0936305 L11.3883821,14.009337 C11.3477843,13.9215653 11.2922408,13.8424892 11.2249039,13.7751522 L22.765556,2.23455445 L15.127893,22.0936305 Z M5.6625525,7.07616546 L11.7748864,13.2091567 L11.5943201,13.3678984 L5.41037462,7.16540265 L5.6625525,7.07616546 Z" id="Shape"></path>
            </g>
            <line x1="-5.68434189e-14" y1="25.0001522" x2="25.0000802" y2="0" id="Path" stroke="#FFFFFF" stroke-width="2" stroke-linecap="round" transform="translate(12.500040, 12.500076) scale(1, -1) translate(-12.500040, -12.500076) "></line>
            <path d="" id="Path-4" stroke="#979797"></path>
        </g>
    </g>
</svg>