<?xml version="1.0" encoding="UTF-8"?>
<svg width="20px" height="20px" viewBox="0 0 20 20" version="1.1" xmlns="http://www.w3.org/2000/svg" xmlns:xlink="http://www.w3.org/1999/xlink">
    <title>location 2</title>
    <g id="Page-1" stroke="none" stroke-width="1" fill="none" fill-rule="evenodd">
        <g id="location-2" transform="translate(0.000050, 0.000013)" fill="#FFFFFF" fill-rule="nonzero">
            <g id="location-svgrepo-com">
                <path d="M19.8089465,0.191033694 C19.6266862,0.00877393553 19.3542088,-0.0490083211 19.1137313,0.0434693763 L0.418052172,7.23368644 C0.173531218,7.32772934 0.00896652848,7.55898879 0.00035786045,7.8208568 C-0.00829428567,8.08272474 0.140574801,8.324332 0.378356648,8.43433133 L8.02746253,11.9725271 L11.5656686,19.621611 C11.6726248,19.852827 11.9040153,20 12.1574927,20 C12.1646667,20 12.1719275,20 12.1791449,19.9996521 C12.4410136,19.9910001 12.6722737,19.8264793 12.7663169,19.581959 L19.9565112,0.886290327 C20.0490327,0.645726577 19.9912067,0.373249976 19.8089465,0.191033694 Z M12.1022755,17.6747968 L9.11067645,11.2074014 C9.07819829,11.1371844 9.03376363,11.0739239 8.97989427,11.0200547 L18.2123864,1.78763266 L12.1022755,17.6747968 Z" id="Shape"></path>
            </g>
        </g>
    </g>
</svg>